<?xml version="1.0" standalone="no"?>
<!DOCTYPE svg PUBLIC "-//W3C//DTD SVG 20010904//EN"
 "http://www.w3.org/TR/2001/REC-SVG-20010904/DTD/svg10.dtd">
<svg version="1.0" xmlns="http://www.w3.org/2000/svg"
 width="247.000000pt" height="68.000000pt" viewBox="0 0 247.000000 68.000000"
 preserveAspectRatio="xMidYMid meet">
<metadata>
Created by potrace 1.16, written by Peter Selinger 2001-2019
</metadata>
<g transform="translate(0.000000,68.000000) scale(0.100000,-0.100000)"
fill="#000000" stroke="none">
<path d="M282 438 c-8 -8 -12 -47 -12 -110 0 -91 1 -98 20 -98 16 0 20 7 20
35 l0 35 65 0 65 0 0 -35 c0 -28 4 -35 20 -35 19 0 20 7 20 98 0 63 -4 102
-12 110 -16 16 -170 16 -186 0z"/>
<path d="M610 362 c0 -123 8 -132 110 -132 106 0 110 5 110 126 0 94 0 94 -25
94 -25 0 -25 -1 -25 -85 l0 -85 -60 0 -60 0 0 85 c0 84 0 85 -25 85 -25 0 -25
-1 -25 -88z"/>
<path d="M960 340 l0 -110 25 0 c22 0 25 4 25 35 0 32 2 35 29 35 22 0 37 -10
59 -36 23 -28 35 -35 58 -32 l28 3 -26 29 c-25 29 -25 30 -6 45 27 23 35 84
14 116 -16 24 -21 25 -111 25 l-95 0 0 -110z"/>
<path d="M1316 428 c-11 -15 -16 -45 -16 -88 0 -98 12 -110 110 -110 103 0
110 7 110 110 0 103 -7 110 -110 110 -70 0 -81 -2 -94 -22z"/>
<path d="M1650 340 l0 -110 25 0 c22 0 25 4 25 35 0 32 2 35 29 35 22 0 37
-10 59 -36 23 -28 35 -35 58 -32 l28 3 -26 29 c-25 29 -25 30 -6 45 27 23 35
84 14 116 -16 24 -21 25 -111 25 l-95 0 0 -110z"/>
<path d="M2006 434 c-12 -12 -16 -37 -16 -110 0 -94 0 -94 25 -94 22 0 25 4
25 35 l0 35 60 0 60 0 0 -35 c0 -31 3 -35 25 -35 25 0 25 0 25 94 0 121 -4
126 -110 126 -58 0 -83 -4 -94 -16z"/>
</g>
</svg>
